<svg width="20" height="21" viewBox="0 0 20 21" fill="none" xmlns="http://www.w3.org/2000/svg">
<path d="M9.16663 7.99996H10.8333V6.33329H9.16663M9.99996 17.1666C6.32496 17.1666 3.33329 14.175 3.33329 10.5C3.33329 6.82496 6.32496 3.83329 9.99996 3.83329C13.675 3.83329 16.6666 6.82496 16.6666 10.5C16.6666 14.175 13.675 17.1666 9.99996 17.1666ZM9.99996 2.16663C8.90561 2.16663 7.82198 2.38217 6.81093 2.80096C5.79988 3.21975 4.88122 3.83358 4.1074 4.6074C2.5446 6.17021 1.66663 8.28982 1.66663 10.5C1.66663 12.7101 2.5446 14.8297 4.1074 16.3925C4.88122 17.1663 5.79988 17.7802 6.81093 18.199C7.82198 18.6177 8.90561 18.8333 9.99996 18.8333C12.2101 18.8333 14.3297 17.9553 15.8925 16.3925C17.4553 14.8297 18.3333 12.7101 18.3333 10.5C18.3333 9.40561 18.1177 8.32198 17.699 7.31093C17.2802 6.29988 16.6663 5.38122 15.8925 4.6074C15.1187 3.83358 14.2 3.21975 13.189 2.80096C12.1779 2.38217 11.0943 2.16663 9.99996 2.16663ZM9.16663 14.6666H10.8333V9.66663H9.16663V14.6666Z" fill="white"/>
</svg>
