<svg width="20" height="21" viewBox="0 0 20 21" fill="none" xmlns="http://www.w3.org/2000/svg">
<path d="M3.33329 17.1667C2.87496 17.1667 2.48246 17.0034 2.15579 16.6767C1.82913 16.35 1.66607 15.9578 1.66663 15.5V5.50004C1.66663 5.04171 1.82996 4.64921 2.15663 4.32254C2.48329 3.99588 2.87552 3.83282 3.33329 3.83338H16.6666C17.125 3.83338 17.5175 3.99671 17.8441 4.32338C18.1708 4.65004 18.3338 5.04226 18.3333 5.50004V15.5C18.3333 15.9584 18.17 16.3509 17.8433 16.6775C17.5166 17.0042 17.1244 17.1673 16.6666 17.1667H3.33329ZM9.99996 11.3334L16.6666 7.16671V5.50004L9.99996 9.66671L3.33329 5.50004V7.16671L9.99996 11.3334Z" fill="white"/>
</svg>
