<svg width="20" height="21" viewBox="0 0 20 21" fill="none" xmlns="http://www.w3.org/2000/svg">
<path d="M18.3333 18.8333H1.66663M1.66663 9.66667L8.43829 4.25C8.88156 3.89541 9.43231 3.70223 9.99996 3.70223C10.5676 3.70223 11.1184 3.89541 11.5616 4.25L18.3333 9.66667M12.9166 5.08333V3.41667C12.9166 3.30616 12.9605 3.20018 13.0387 3.12204C13.1168 3.0439 13.2228 3 13.3333 3H15.4166C15.5271 3 15.6331 3.0439 15.7113 3.12204C15.7894 3.20018 15.8333 3.30616 15.8333 3.41667V7.58333M3.33329 18.8333V8.41667M16.6666 18.8333V8.41667" stroke="white" stroke-width="1.5" stroke-linecap="round"/>
<path d="M12.5 18.8333V14.6667C12.5 13.4883 12.5 12.8992 12.1333 12.5333C11.7683 12.1667 11.1792 12.1667 10 12.1667C8.82167 12.1667 8.2325 12.1667 7.86667 12.5333C7.5 12.8983 7.5 13.4875 7.5 14.6667V18.8333M11.6667 8.41667C11.6667 8.85869 11.4911 9.28262 11.1785 9.59518C10.866 9.90774 10.442 10.0833 10 10.0833C9.55797 10.0833 9.13405 9.90774 8.82149 9.59518C8.50893 9.28262 8.33333 8.85869 8.33333 8.41667C8.33333 7.97464 8.50893 7.55072 8.82149 7.23816C9.13405 6.9256 9.55797 6.75 10 6.75C10.442 6.75 10.866 6.9256 11.1785 7.23816C11.4911 7.55072 11.6667 7.97464 11.6667 8.41667Z" stroke="white" stroke-width="1.5"/>
</svg>
