<svg width="20" height="21" viewBox="0 0 20 21" fill="none" xmlns="http://www.w3.org/2000/svg">
<path d="M5.46875 15.1875H7.03125C7.11719 15.1875 7.1875 15.1172 7.1875 15.0312V5.96875C7.1875 5.88281 7.11719 5.8125 7.03125 5.8125H5.46875C5.38281 5.8125 5.3125 5.88281 5.3125 5.96875V15.0312C5.3125 15.1172 5.38281 15.1875 5.46875 15.1875ZM9.21875 9.71875H10.7812C10.8672 9.71875 10.9375 9.64844 10.9375 9.5625V5.96875C10.9375 5.88281 10.8672 5.8125 10.7812 5.8125H9.21875C9.13281 5.8125 9.0625 5.88281 9.0625 5.96875V9.5625C9.0625 9.64844 9.13281 9.71875 9.21875 9.71875ZM12.9688 11.125H14.5312C14.6172 11.125 14.6875 11.0547 14.6875 10.9688V5.96875C14.6875 5.88281 14.6172 5.8125 14.5312 5.8125H12.9688C12.8828 5.8125 12.8125 5.88281 12.8125 5.96875V10.9688C12.8125 11.0547 12.8828 11.125 12.9688 11.125ZM17.1875 2.6875H2.8125C2.4668 2.6875 2.1875 2.9668 2.1875 3.3125V17.6875C2.1875 18.0332 2.4668 18.3125 2.8125 18.3125H17.1875C17.5332 18.3125 17.8125 18.0332 17.8125 17.6875V3.3125C17.8125 2.9668 17.5332 2.6875 17.1875 2.6875ZM16.4062 16.9062H3.59375V4.09375H16.4062V16.9062Z" fill="white"/>
</svg>
