<svg width="20" height="21" viewBox="0 0 20 21" fill="none" xmlns="http://www.w3.org/2000/svg">
<path fill-rule="evenodd" clip-rule="evenodd" d="M15.1375 2.80412L15.35 2.83079C15.9117 2.90829 16.655 3.01246 17.0759 3.43412C17.4209 3.77829 17.5534 4.33829 17.6325 4.83829L17.6792 5.15996C17.7842 5.91829 17.8117 6.91162 17.6325 8.01496C17.2792 10.1925 16.12 12.7908 13.2092 14.8025C13.1934 14.9591 13.1925 15.1175 13.1959 15.2758L13.2042 15.5125C13.2175 15.8766 13.2309 16.24 13.1292 16.5941C12.9709 17.1441 12.4067 17.5066 11.8792 17.7666L11.6209 17.8891L11.2875 18.0358C10.6642 18.3008 9.82254 18.5725 9.29504 18.0441C8.97837 17.7283 8.84837 17.265 8.74254 16.8041L8.70337 16.6316C8.65925 16.4138 8.60361 16.1985 8.53671 15.9866C8.49504 15.865 8.45004 15.7408 8.40171 15.6158C8.34851 15.6811 8.29205 15.7437 8.23254 15.8033C7.94504 16.0908 7.51587 16.2916 7.16254 16.4325C6.77671 16.585 6.34004 16.7183 5.93587 16.8283L5.72837 16.8833L5.33087 16.9825L4.97087 17.0658L4.54004 17.1575L4.27087 17.21C4.13663 17.2348 3.99836 17.2266 3.86798 17.1861C3.7376 17.1456 3.61903 17.074 3.52249 16.9775C3.42596 16.881 3.35435 16.7624 3.31385 16.632C3.27336 16.5016 3.26518 16.3634 3.29004 16.2291L3.36171 15.87L3.49004 15.2883L3.59337 14.8633L3.67171 14.5633C3.78171 14.16 3.91504 13.7233 4.06837 13.3383C4.20837 12.9841 4.40921 12.555 4.69671 12.2675L4.76337 12.2033L4.71004 12.1816C4.56762 12.1275 4.42337 12.0783 4.27754 12.0341L4.04671 11.9633C3.46837 11.7883 2.85004 11.6 2.46587 11.215C1.99921 10.7491 2.15671 10.04 2.38171 9.44996L2.47337 9.22162L2.62087 8.88829L2.74337 8.62996C3.00337 8.10329 3.36587 7.53912 3.91587 7.38079C4.20754 7.29746 4.51087 7.29246 4.81587 7.30079L4.99921 7.30662C5.23754 7.31496 5.47504 7.32412 5.70754 7.30162C7.71921 4.38996 10.3175 3.23079 12.495 2.87746C13.3686 2.73419 14.2574 2.70952 15.1375 2.80412ZM6.96087 13.3666C6.82972 13.2695 6.67297 13.2131 6.51004 13.2042C6.34711 13.1953 6.18514 13.2344 6.04421 13.3166L5.95254 13.3783L5.87504 13.4475L5.77087 13.5791C5.55421 13.8925 5.43087 14.3258 5.33504 14.7308L5.24504 15.1208L5.20254 15.2983L5.36171 15.26L5.71004 15.18C6.19171 15.0675 6.72587 14.9216 7.05421 14.6258C7.19697 14.4831 7.28309 14.2935 7.29657 14.0921C7.31006 13.8907 7.25 13.6912 7.12754 13.5308L7.05921 13.4525L7.03921 13.4333L6.96087 13.3666ZM12.9467 7.55496C12.792 7.40016 12.6082 7.27736 12.406 7.19356C12.2039 7.10977 11.9871 7.06662 11.7683 7.06658C11.5494 7.06654 11.3326 7.10961 11.1304 7.19334C10.9282 7.27706 10.7444 7.3998 10.5896 7.55454C10.4348 7.70928 10.312 7.893 10.2282 8.0952C10.1444 8.2974 10.1013 8.51412 10.1012 8.733C10.1012 8.95187 10.1443 9.16861 10.228 9.37084C10.3117 9.57307 10.4345 9.75683 10.5892 9.91162C10.9017 10.2242 11.3256 10.3999 11.7677 10.4C12.2097 10.4001 12.6337 10.2246 12.9463 9.91204C13.2589 9.59953 13.4346 9.17562 13.4347 8.73359C13.4347 8.29155 13.2592 7.86758 12.9467 7.55496Z" fill="white"/>
</svg>
