<svg width="33" height="32" viewBox="0 0 33 32" fill="none" xmlns="http://www.w3.org/2000/svg">
<path d="M6.246 27.201L4 2H28.688L26.439 27.197L16.329 30L6.246 27.201Z" fill="#1572B6"/>
<path d="M16.344 27.858L24.6896 25.593L26.653 4.06097H16.344V27.858Z" fill="#33A9DC"/>
<path d="M16.344 13.191H20.5219L20.81 10.026H16.344V6.935H24.2606L24.185 7.764L23.4097 16.282H16.344V13.191Z" fill="white"/>
<path d="M16.3634 21.218L16.3491 21.222L12.8331 20.292L12.6084 17.827H9.43866L9.88097 22.68L16.3481 24.438L16.3634 24.434V21.218Z" fill="#EBEBEB"/>
<path d="M20.2533 16.151L19.8733 20.29L16.3522 21.22V24.436L22.8244 22.68L22.8724 22.158L23.421 16.151H20.2533Z" fill="white"/>
<path d="M16.3552 6.935V10.026H8.72873L8.66539 9.331L8.52136 7.764L8.44577 6.935H16.3552ZM16.344 13.191V16.282H12.8719L12.8086 15.587L12.6656 14.02L12.59 13.191H16.344Z" fill="#EBEBEB"/>
</svg>
