<svg width="42" height="43" viewBox="0 0 42 43" fill="none" xmlns="http://www.w3.org/2000/svg">
<path d="M6.94498 35.2351C5.99004 35.2351 5.17226 34.8948 4.49165 34.2142C3.81104 33.5336 3.47132 32.7164 3.47248 31.7626V10.9276C3.47248 9.97264 3.81278 9.15487 4.49339 8.47426C5.174 7.79365 5.9912 7.45392 6.94498 7.45508H34.725C35.6799 7.45508 36.4977 7.79539 37.1783 8.476C37.8589 9.15661 38.1986 9.9738 38.1975 10.9276V31.7626C38.1975 32.7175 37.8572 33.5353 37.1766 34.2159C36.496 34.8965 35.6788 35.2362 34.725 35.2351H6.94498ZM20.835 23.0813L34.725 14.4001V10.9276L20.835 19.6088L6.94498 10.9276V14.4001L20.835 23.0813Z" fill="white"/>
</svg>
