<svg width="41" height="41" viewBox="0 0 41 41" fill="none" xmlns="http://www.w3.org/2000/svg">
<path d="M20.5016 3.83333C11.2933 3.83333 3.83496 11.2917 3.83496 20.5C3.83296 23.9986 4.93263 27.409 6.97798 30.2474C9.02333 33.0858 11.9105 35.2082 15.23 36.3133C16.0633 36.4583 16.3766 35.9583 16.3766 35.52C16.3766 35.125 16.355 33.8133 16.355 32.4167C12.1683 33.1883 11.085 31.3967 10.7516 30.4583C10.5633 29.9783 9.75163 28.5 9.0433 28.1033C8.45996 27.7917 7.62663 27.02 9.02163 27C10.335 26.9783 11.2716 28.2083 11.585 28.7083C13.085 31.2283 15.48 30.52 16.4383 30.0833C16.585 29 17.0216 28.2717 17.5016 27.855C13.7933 27.4383 9.9183 26 9.9183 19.625C9.9183 17.8117 10.5633 16.3133 11.6266 15.145C11.46 14.7283 10.8766 13.02 11.7933 10.7283C11.7933 10.7283 13.1883 10.2917 16.3766 12.4383C17.7334 12.0618 19.1352 11.8722 20.5433 11.875C21.96 11.875 23.3766 12.0617 24.71 12.4367C27.8983 10.27 29.2933 10.73 29.2933 10.73C30.21 13.0217 29.6266 14.73 29.46 15.1467C30.5216 16.3133 31.1683 17.7917 31.1683 19.625C31.1683 26.0217 27.2733 27.4383 23.5633 27.855C24.1683 28.375 24.69 29.375 24.69 30.9383C24.69 33.1667 24.6683 34.9583 24.6683 35.5217C24.6683 35.9583 24.9816 36.4783 25.815 36.3117C29.123 35.1944 31.9975 33.0679 34.0338 30.2315C36.0701 27.3952 37.1658 23.9917 37.1666 20.5C37.1666 11.2917 29.7083 3.83333 20.5 3.83333H20.5016Z" fill="white"/>
</svg>
