<svg width="41" height="41" viewBox="0 0 41 41" fill="none" xmlns="http://www.w3.org/2000/svg">
<path fill-rule="evenodd" clip-rule="evenodd" d="M27.1667 5.5C29.3768 5.5 31.4964 6.37797 33.0592 7.94078C34.622 9.50358 35.5 11.6232 35.5 13.8333V27.1667C35.5 29.3768 34.622 31.4964 33.0592 33.0592C31.4964 34.622 29.3768 35.5 27.1667 35.5H13.8333C11.6232 35.5 9.50358 34.622 7.94078 33.0592C6.37797 31.4964 5.5 29.3768 5.5 27.1667V13.8333C5.5 11.6232 6.37797 9.50358 7.94078 7.94078C9.50358 6.37797 11.6232 5.5 13.8333 5.5H27.1667ZM27.1667 8.83333H13.8333C12.5073 8.83333 11.2355 9.36012 10.2978 10.2978C9.36012 11.2355 8.83333 12.5073 8.83333 13.8333V27.1667C8.83333 28.4927 9.36012 29.7645 10.2978 30.7022C11.2355 31.6399 12.5073 32.1667 13.8333 32.1667H27.1667C28.4927 32.1667 29.7645 31.6399 30.7022 30.7022C31.6399 29.7645 32.1667 28.4927 32.1667 27.1667V13.8333C32.1667 12.5073 31.6399 11.2355 30.7022 10.2978C29.7645 9.36012 28.4927 8.83333 27.1667 8.83333ZM20.5 13.8333C22.2681 13.8333 23.9638 14.5357 25.214 15.786C26.4643 17.0362 27.1667 18.7319 27.1667 20.5C27.1667 22.2681 26.4643 23.9638 25.214 25.214C23.9638 26.4643 22.2681 27.1667 20.5 27.1667C18.7319 27.1667 17.0362 26.4643 15.786 25.214C14.5357 23.9638 13.8333 22.2681 13.8333 20.5C13.8333 18.7319 14.5357 17.0362 15.786 15.786C17.0362 14.5357 18.7319 13.8333 20.5 13.8333ZM20.5 17.1667C19.6159 17.1667 18.7681 17.5179 18.143 18.143C17.5179 18.7681 17.1667 19.6159 17.1667 20.5C17.1667 21.3841 17.5179 22.2319 18.143 22.857C18.7681 23.4821 19.6159 23.8333 20.5 23.8333C21.3841 23.8333 22.2319 23.4821 22.857 22.857C23.4821 22.2319 23.8333 21.3841 23.8333 20.5C23.8333 19.6159 23.4821 18.7681 22.857 18.143C22.2319 17.5179 21.3841 17.1667 20.5 17.1667ZM28 11.3333C28.442 11.3333 28.866 11.5089 29.1785 11.8215C29.4911 12.134 29.6667 12.558 29.6667 13C29.6667 13.442 29.4911 13.866 29.1785 14.1785C28.866 14.4911 28.442 14.6667 28 14.6667C27.558 14.6667 27.134 14.4911 26.8215 14.1785C26.5089 13.866 26.3333 13.442 26.3333 13C26.3333 12.558 26.5089 12.134 26.8215 11.8215C27.134 11.5089 27.558 11.3333 28 11.3333Z" fill="white"/>
</svg>
