<svg width="25" height="25" viewBox="0 0 25 25" fill="none" xmlns="http://www.w3.org/2000/svg">
<path d="M0.274994 0.275024H24.725V24.7252H0.274994V0.275024Z" fill="#F0DB4F"/>
<path d="M22.724 18.8938C22.5449 17.7783 21.8176 16.8414 19.6631 15.9678C18.9147 15.6238 18.0803 15.3776 17.8316 14.8104C17.7434 14.4803 17.7316 14.2943 17.7875 14.0945C17.9479 13.4461 18.7219 13.244 19.3354 13.4299C19.7305 13.5623 20.1045 13.8668 20.3301 14.3526C21.3852 13.6693 21.383 13.6738 22.1197 13.2043C21.85 12.7861 21.7061 12.5932 21.5295 12.4143C20.8949 11.7055 20.0303 11.3404 18.6475 11.3684L17.9271 11.4615C17.2369 11.636 16.5791 11.9983 16.1934 12.484C15.0359 13.7973 15.366 16.0957 16.7744 17.0416C18.1619 18.083 20.2002 18.3199 20.4605 19.2938C20.7139 20.486 19.5844 20.8719 18.4617 20.7348C17.6344 20.5627 17.1742 20.1422 16.6768 19.3776C15.7611 19.9074 15.7611 19.9074 14.8197 20.4488C15.043 20.9369 15.2775 21.1578 15.6518 21.5807C17.4229 23.3772 21.8549 23.2889 22.6498 20.5697C22.682 20.4764 22.8961 19.8537 22.724 18.8938ZM13.5668 11.5123H11.2799L11.2705 17.4248C11.2705 18.6822 11.3355 19.835 11.1311 20.1883C10.7965 20.8832 9.92949 20.7971 9.53438 20.6623C9.13223 20.4647 8.92773 20.1836 8.69082 19.7863C8.62578 19.6723 8.57695 19.584 8.56055 19.5772L6.70117 20.7158C7.01035 21.3504 7.46582 21.9012 8.04922 22.259C8.9207 22.782 10.092 22.9424 11.317 22.6611C12.1143 22.4289 12.8021 21.9479 13.1623 21.2156C13.683 20.2557 13.5713 19.0938 13.5666 17.8086C13.5783 15.7119 13.5668 13.6156 13.5668 11.5123Z" fill="#323330"/>
</svg>
