<svg width="25" height="24" viewBox="0 0 25 24" fill="none" xmlns="http://www.w3.org/2000/svg">
<mask id="mask0_13_167" style="mask-type:luminance" maskUnits="userSpaceOnUse" x="0" y="0" width="25" height="24">
<path d="M0.688004 0H24.688V24H0.688004V0Z" fill="white"/>
</mask>
<g mask="url(#mask0_13_167)">
<path d="M11.902 0.006125C11.85 0.011125 11.686 0.028125 11.538 0.039125C8.13 0.347125 4.938 2.18613 2.914 5.01312C1.7963 6.56485 1.06972 8.36346 0.796004 10.2561C0.700004 10.9161 0.688004 11.1101 0.688004 12.0041C0.688004 12.8981 0.700004 13.0931 0.796004 13.7521C1.448 18.2591 4.656 22.0451 9.005 23.4481C9.784 23.6991 10.605 23.8701 11.538 23.9741C11.902 24.0141 13.474 24.0141 13.838 23.9741C15.449 23.7951 16.815 23.3961 18.161 22.7091C18.368 22.6041 18.408 22.5751 18.38 22.5521C17.7216 21.6838 17.0699 20.8105 16.425 19.9321L14.506 17.3391L12.102 13.7801C11.3021 12.5897 10.4948 11.4044 9.68 10.2241C9.671 10.2211 9.662 11.8021 9.657 13.7341C9.65 17.1141 9.647 17.2501 9.605 17.3301C9.56404 17.4235 9.49095 17.4991 9.399 17.5431C9.324 17.5811 9.259 17.5881 8.904 17.5881H8.498L8.39 17.5201C8.32317 17.4779 8.26894 17.4185 8.233 17.3481L8.183 17.2431L8.188 12.5391L8.195 7.83313L8.268 7.74113C8.31715 7.68361 8.37605 7.6352 8.442 7.59812C8.538 7.55113 8.575 7.54712 8.982 7.54712C9.46 7.54712 9.54 7.56512 9.664 7.70113C9.699 7.73913 11.001 9.70112 12.559 12.0631L17.293 19.2351L19.193 22.1131L19.29 22.0501C20.2044 21.4422 21.0334 20.7148 21.755 19.8871C23.2672 18.1564 24.248 16.0263 24.58 13.7521C24.676 13.0921 24.688 12.8981 24.688 12.0041C24.688 11.1101 24.676 10.9161 24.58 10.2561C23.928 5.75012 20.72 1.96312 16.371 0.560125C15.5582 0.301694 14.7212 0.126462 13.873 0.037125C13.647 0.013125 12.097 -0.012875 11.903 0.007125L11.902 0.006125ZM16.815 7.26612C16.8708 7.29421 16.9204 7.33306 16.9611 7.38043C17.0018 7.4278 17.0327 7.48275 17.052 7.54212C17.07 7.60212 17.075 8.90713 17.07 11.8471L17.063 16.0651L16.32 14.9251L15.574 13.7851V10.7191C15.574 8.73612 15.583 7.62212 15.597 7.56812C15.6137 7.50566 15.6428 7.44723 15.6827 7.39635C15.7225 7.34547 15.7723 7.30321 15.829 7.27212C15.926 7.22212 15.961 7.21812 16.329 7.21812C16.676 7.21812 16.737 7.22412 16.815 7.26612Z" fill="white"/>
</g>
</svg>
