<svg width="25" height="25" viewBox="0 0 25 25" fill="none" xmlns="http://www.w3.org/2000/svg">
<path d="M12.5 14.4328C13.5787 14.4328 14.4531 13.5584 14.4531 12.4797C14.4531 11.401 13.5787 10.5266 12.5 10.5266C11.4213 10.5266 10.5469 11.401 10.5469 12.4797C10.5469 13.5584 11.4213 14.4328 12.5 14.4328Z" fill="#00D8FF"/>
<path d="M12.5 16.9578C10.1524 17.0146 7.81078 16.6981 5.5625 16.0203C4.52392 15.6911 3.55526 15.1724 2.70547 14.4906C2.3812 14.2577 2.11115 13.9574 1.91386 13.6103C1.71657 13.2632 1.59671 12.8775 1.5625 12.4797C1.5625 11.1883 2.98125 9.92265 5.35781 9.09453C7.6662 8.36074 10.0781 8.0051 12.5 8.0414C14.8896 8.00802 17.2692 8.35722 19.5484 9.07578C20.5487 9.39465 21.4845 9.88822 22.3125 10.5336C22.6312 10.7557 22.8972 11.0451 23.0916 11.3814C23.2861 11.7177 23.4041 12.0927 23.4375 12.4797C23.4375 13.8219 21.8516 15.182 19.2969 16.0273C17.0921 16.6831 14.7999 16.9969 12.5 16.9578ZM12.5 8.97578C10.1829 8.9448 7.87565 9.28289 5.66484 9.97734C3.47734 10.7406 2.49688 11.7844 2.49688 12.4773C2.49688 13.2023 3.55078 14.3422 5.86484 15.1336C8.01568 15.7788 10.2552 16.0791 12.5 16.0234C14.7003 16.0628 16.8937 15.7651 19.0039 15.1406C21.4062 14.3445 22.5 13.2031 22.5 12.4797C22.4606 12.2314 22.3701 11.994 22.2343 11.7825C22.0985 11.571 21.9203 11.3899 21.7109 11.2508C20.9701 10.6782 20.1341 10.2408 19.2414 9.95859C17.061 9.27402 14.7851 8.94224 12.5 8.97578Z" fill="#00D8FF"/>
<path d="M8.06244 22.2211C7.69799 22.2295 7.33783 22.1411 7.01869 21.9649C5.89994 21.3196 5.51244 19.4586 5.98197 16.986C6.49966 14.6196 7.39666 12.3526 8.63822 10.2727C9.80285 8.18604 11.2938 6.29918 13.0546 4.68362C13.8305 3.97636 14.7256 3.41217 15.6984 3.01721C16.0502 2.85232 16.434 2.76685 16.8226 2.76685C17.2112 2.76685 17.595 2.85232 17.9468 3.01721C19.1101 3.68752 19.4953 5.74065 18.9523 8.37581C18.4186 10.6137 17.5449 12.7566 16.3617 14.7297C15.238 16.7917 13.794 18.6621 12.0835 20.2711C11.2795 21.0061 10.3463 21.5859 9.33119 21.9813C8.9248 22.1321 8.49585 22.2132 8.06244 22.2211ZM9.4476 10.7367C8.2633 12.7284 7.40358 14.8959 6.90072 17.1578C6.46869 19.4352 6.88353 20.8047 7.48666 21.1532C8.11166 21.5149 9.62885 21.1719 11.471 19.5625C13.1039 18.0211 14.4822 16.2307 15.5546 14.2578C16.6882 12.3715 17.5263 10.3228 18.0398 8.18284C18.5507 5.70237 18.1093 4.18362 17.4828 3.82268C17.2479 3.7327 16.997 3.69242 16.7458 3.70439C16.4946 3.71636 16.2486 3.78031 16.0234 3.89221C15.1575 4.24951 14.3614 4.75677 13.6718 5.39065C11.9895 6.93814 10.5653 8.74451 9.45306 10.7414L9.4476 10.7367Z" fill="#00D8FF"/>
<path d="M16.9352 22.2312C15.8766 22.2312 14.532 21.5906 13.132 20.3867C11.3404 18.7564 9.82421 16.8472 8.64219 14.7328C7.4162 12.6815 6.52631 10.4473 6.00625 8.11483C5.78071 7.08865 5.73892 6.0306 5.88282 4.98983C5.91608 4.60374 6.03365 4.22965 6.22722 3.89394C6.42079 3.55823 6.68565 3.26907 7.00313 3.04686C8.16485 2.3742 10.1359 3.06561 12.1477 4.85155C13.82 6.43138 15.2402 8.25834 16.3586 10.2687C17.5838 12.2721 18.4831 14.4574 19.0227 16.743C19.2579 17.8068 19.2942 18.905 19.1297 19.982C19.0906 20.3792 18.966 20.7632 18.7645 21.1078C18.5631 21.4523 18.2895 21.7492 17.9625 21.9781C17.6486 22.1521 17.294 22.2395 16.9352 22.2312ZM9.45079 14.2625C10.5847 16.2831 12.033 18.1104 13.7414 19.6758C15.4984 21.1875 16.8922 21.5125 17.4914 21.1601C18.1164 20.7969 18.5773 19.314 18.1023 16.9148C17.5819 14.7327 16.7194 12.6468 15.5469 10.7344C14.4796 8.81024 13.124 7.06081 11.5273 5.54686C9.6336 3.86561 8.09766 3.48983 7.47188 3.85233C7.27684 4.01083 7.11678 4.20805 7.00181 4.43154C6.88683 4.65502 6.81945 4.89992 6.80391 5.15076C6.6797 6.07896 6.72016 7.02178 6.92344 7.93592C7.42368 10.1665 8.27715 12.3028 9.45157 14.264L9.45079 14.2625Z" fill="#00D8FF"/>
</svg>
