<svg width="25" height="25" viewBox="0 0 25 25" fill="none" xmlns="http://www.w3.org/2000/svg">
<path d="M21.9229 13.3291L14.8916 20.3603C14.6715 20.5805 14.3729 20.7042 14.0615 20.7042C13.7502 20.7042 13.4516 20.5805 13.2314 20.3603C13.0113 20.1402 12.8876 19.8416 12.8876 19.5303C12.8876 19.2189 13.0113 18.9203 13.2314 18.7002L18.2617 13.6719H3.90625C3.59545 13.6719 3.29738 13.5484 3.07761 13.3286C2.85784 13.1089 2.73438 12.8108 2.73438 12.5C2.73438 12.1892 2.85784 11.8911 3.07761 11.6713C3.29738 11.4516 3.59545 11.3281 3.90625 11.3281H18.2617L13.2334 6.29686C13.0132 6.07671 12.8896 5.77812 12.8896 5.46678C12.8896 5.15545 13.0132 4.85686 13.2334 4.63671C13.4535 4.41656 13.7521 4.29288 14.0635 4.29288C14.3748 4.29288 14.6734 4.41656 14.8936 4.63671L21.9248 11.668C22.0341 11.777 22.1207 11.9065 22.1798 12.0491C22.2389 12.1917 22.2692 12.3446 22.269 12.4989C22.2688 12.6533 22.2381 12.8061 22.1787 12.9485C22.1193 13.091 22.0324 13.2203 21.9229 13.3291Z" fill="#D719AD"/>
</svg>
