<svg width="25" height="25" viewBox="0 0 25 25" fill="none" xmlns="http://www.w3.org/2000/svg">
<path d="M12.5 6C9.1666 6 7.08398 7.66602 6.25 10.9994C7.49961 9.3332 8.9584 8.7084 10.6246 9.125C11.576 9.36211 12.2559 10.052 13.0088 10.8164C14.2342 12.06 15.6525 13.4996 18.75 13.4996C22.0832 13.4996 24.166 11.8334 25 8.49922C23.7502 10.1664 22.2916 10.7912 20.6252 10.3746C19.674 10.1373 18.9949 9.44766 18.241 8.6832C17.0164 7.43965 15.5984 6 12.5 6ZM6.25 13.4996C2.9168 13.4996 0.833984 15.1658 0 18.5C1.24961 16.8328 2.7082 16.208 4.37461 16.6246C5.32598 16.8619 6.00586 17.5516 6.75879 18.316C7.98418 19.5596 9.40254 20.9992 12.5 20.9992C15.8332 20.9992 17.916 19.3332 18.75 15.9998C17.5002 17.666 16.0416 18.2908 14.3752 17.8742C13.424 17.6371 12.7449 16.9473 11.991 16.1828C10.7664 14.9393 9.34844 13.4996 6.25 13.4996Z" fill="#38BDF8"/>
</svg>
