<svg width="41" height="41" viewBox="0 0 41 41" fill="none" xmlns="http://www.w3.org/2000/svg">
<path d="M28.1667 10.2C27.0274 8.89937 26.3995 7.22905 26.4 5.5H21.25V26.1667C21.2103 27.285 20.7381 28.3444 19.933 29.1216C19.1278 29.8988 18.0524 30.3332 16.9333 30.3333C14.5667 30.3333 12.6 28.4 12.6 26C12.6 23.1333 15.3667 20.9833 18.2167 21.8667V16.6C12.4667 15.8333 7.43335 20.3 7.43335 26C7.43335 31.55 12.0334 35.5 16.9167 35.5C22.15 35.5 26.4 31.25 26.4 26V15.5167C28.4883 17.0164 30.9956 17.8211 33.5667 17.8167V12.6667C33.5667 12.6667 30.4334 12.8167 28.1667 10.2Z" fill="white"/>
</svg>
