<svg width="25" height="25" viewBox="0 0 25 25" fill="none" xmlns="http://www.w3.org/2000/svg">
<path d="M1.95312 0H23.0469C24.1256 0 25 0.874414 25 1.95312V23.0469C25 24.1256 24.1256 25 23.0469 25H1.95312C0.874414 25 0 24.1256 0 23.0469V1.95312C0 0.874414 0.874414 0 1.95312 0Z" fill="#3178C6"/>
<path d="M14.699 19.5776V22.2749C15.1377 22.4997 15.6565 22.6683 16.2555 22.7807C16.8544 22.8931 17.4856 22.9492 18.1493 22.9492C18.796 22.9492 19.4104 22.8874 19.9925 22.7638C20.5745 22.6401 21.085 22.4364 21.5235 22.1527C21.9622 21.8689 22.3095 21.498 22.5654 21.04C22.8213 20.5821 22.9492 20.016 22.9492 19.3417C22.9492 18.8528 22.8761 18.4243 22.7299 18.0562C22.5853 17.6907 22.3703 17.3571 22.0972 17.0743C21.8217 16.7877 21.4912 16.5307 21.1061 16.303C20.7208 16.0755 20.2863 15.8605 19.8026 15.6583C19.4483 15.5121 19.1307 15.3703 18.8494 15.2326C18.5683 15.0949 18.3292 14.9545 18.1324 14.8111C17.9355 14.6679 17.7837 14.5161 17.6769 14.356C17.57 14.1958 17.5166 14.0146 17.5166 13.8123C17.5166 13.6269 17.5644 13.4598 17.66 13.3108C17.7556 13.1619 17.8906 13.0341 18.0649 12.9273C18.2393 12.8205 18.4529 12.7377 18.7061 12.6786C18.9591 12.6196 19.2403 12.5901 19.5496 12.5901C19.7746 12.5901 20.0122 12.607 20.2624 12.6407C20.5127 12.6744 20.7644 12.7264 21.0175 12.7967C21.2698 12.8666 21.5165 12.9554 21.7556 13.0622C21.9874 13.1649 22.2091 13.2891 22.4178 13.433V10.9128C22.0072 10.7555 21.5587 10.6389 21.0723 10.563C20.5858 10.4871 20.0276 10.4492 19.3978 10.4492C18.7566 10.4492 18.1493 10.5181 17.5757 10.6558C17.0021 10.7934 16.4973 11.0083 16.0614 11.3005C15.6256 11.5928 15.2812 11.965 15.028 12.4174C14.775 12.8697 14.6484 13.4105 14.6484 14.0399C14.6484 14.8435 14.8804 15.529 15.3444 16.0966C15.8084 16.6641 16.5127 17.1445 17.4575 17.5379C17.8063 17.6799 18.1522 17.8289 18.4951 17.9847C18.8157 18.1308 19.0927 18.2824 19.3261 18.4397C19.5595 18.5971 19.7437 18.7685 19.8786 18.9539C20.0136 19.1394 20.0811 19.3501 20.0811 19.5861C20.0822 19.756 20.0385 19.9232 19.9545 20.0708C19.8702 20.2196 19.7422 20.3489 19.5707 20.4585C19.3992 20.5681 19.1854 20.6537 18.9296 20.7155C18.6737 20.7773 18.3742 20.8083 18.0312 20.8083C17.4463 20.8083 16.8671 20.7058 16.2935 20.5006C15.7197 20.2955 15.1883 19.9879 14.699 19.5776ZM10.2033 12.8654H13.6719V10.6445H4.00391V12.8654H7.45557V22.7539H10.2033V12.8654Z" fill="white"/>
</svg>
