<svg width="25" height="25" viewBox="0 0 25 25" fill="none" xmlns="http://www.w3.org/2000/svg">
<path d="M23.3469 4.80155L13.0797 23.1609C13.0315 23.2473 12.9612 23.3192 12.876 23.3695C12.7908 23.4197 12.6938 23.4464 12.5949 23.4468C12.496 23.4472 12.3988 23.4213 12.3132 23.3717C12.2276 23.3222 12.1567 23.2508 12.1078 23.1648L1.63751 4.80311C1.58487 4.71098 1.5596 4.60575 1.56466 4.49976C1.56973 4.39377 1.60491 4.29142 1.6661 4.20473C1.72728 4.11804 1.81193 4.0506 1.91009 4.01032C2.00826 3.97004 2.11588 3.9586 2.22032 3.97733L12.4984 5.81483C12.5638 5.8266 12.6307 5.8266 12.6961 5.81483L22.7594 3.98045C22.8634 3.96144 22.9707 3.9724 23.0688 4.01205C23.1668 4.0517 23.2516 4.1184 23.3132 4.20439C23.3747 4.29037 23.4106 4.39209 23.4166 4.49768C23.4225 4.60327 23.3984 4.70917 23.3469 4.80155Z" fill="url(#paint0_linear_166_261)"/>
<path d="M17.3938 1.56796L9.7969 3.05625C9.73608 3.06812 9.68096 3.09991 9.64021 3.14659C9.59947 3.19328 9.57544 3.2522 9.5719 3.31406L9.10471 11.2078C9.10213 11.2511 9.10969 11.2944 9.12678 11.3343C9.14388 11.3742 9.17004 11.4095 9.20319 11.4375C9.23633 11.4655 9.27555 11.4853 9.31772 11.4955C9.35989 11.5057 9.40386 11.5059 9.44612 11.4961L11.561 11.0078C11.6065 10.9973 11.654 10.9984 11.699 11.011C11.7441 11.0236 11.7852 11.0474 11.8186 11.08C11.8521 11.1127 11.8768 11.1533 11.8905 11.198C11.9041 11.2427 11.9064 11.2901 11.8969 11.3359L11.2688 14.4133C11.2591 14.4607 11.2619 14.5097 11.2769 14.5557C11.2919 14.6017 11.3186 14.643 11.3543 14.6755C11.3901 14.708 11.4337 14.7307 11.4809 14.7413C11.5281 14.7519 11.5772 14.7501 11.6235 14.7359L12.9297 14.3391C12.976 14.3249 13.0253 14.323 13.0725 14.3336C13.1198 14.3443 13.1635 14.367 13.1993 14.3997C13.235 14.4323 13.2617 14.4737 13.2767 14.5198C13.2916 14.5659 13.2943 14.6151 13.2844 14.6625L12.2852 19.4961C12.2227 19.7984 12.625 19.9633 12.793 19.7047L12.9047 19.5312L19.0961 7.17578C19.1194 7.12922 19.1291 7.0771 19.1243 7.02529C19.1194 6.97348 19.1002 6.92406 19.0688 6.88261C19.0373 6.84116 18.9949 6.80933 18.9463 6.79073C18.8977 6.77213 18.8449 6.76749 18.7938 6.77734L16.6164 7.19687C16.5696 7.20584 16.5212 7.20264 16.4759 7.18756C16.4306 7.17249 16.39 7.14605 16.3578 7.11078C16.3257 7.0755 16.3031 7.03257 16.2923 6.9861C16.2815 6.93962 16.2828 6.89114 16.2961 6.84531L17.7164 1.91875C17.7298 1.87276 17.7311 1.82411 17.7203 1.77747C17.7094 1.73083 17.6867 1.68778 17.6543 1.65246C17.622 1.61713 17.5811 1.59073 17.5356 1.5758C17.4901 1.56086 17.4415 1.5579 17.3946 1.56718L17.3938 1.56796Z" fill="url(#paint1_linear_166_261)"/>
<defs>
<linearGradient id="paint0_linear_166_261" x1="1.38167" y1="3.32097" x2="14.1591" y2="20.6738" gradientUnits="userSpaceOnUse">
<stop stop-color="#41D1FF"/>
<stop offset="1" stop-color="#BD34FE"/>
</linearGradient>
<linearGradient id="paint1_linear_166_261" x1="11.9078" y1="1.9717" x2="14.2192" y2="17.8276" gradientUnits="userSpaceOnUse">
<stop stop-color="#FFEA83"/>
<stop offset="0.083" stop-color="#FFDD35"/>
<stop offset="1" stop-color="#FFA800"/>
</linearGradient>
</defs>
</svg>
