<svg width="25" height="25" viewBox="0 0 25 25" fill="none" xmlns="http://www.w3.org/2000/svg">
<path d="M4.16671 21.875C3.59379 21.875 3.10317 21.6708 2.69483 21.2625C2.2865 20.8541 2.08268 20.3639 2.08338 19.7916V8.33331C2.08338 7.7604 2.28754 7.26977 2.69588 6.86144C3.10421 6.45311 3.59449 6.24929 4.16671 6.24998H8.33338V4.16665C8.33338 3.59373 8.53754 3.10311 8.94588 2.69477C9.35421 2.28644 9.84449 2.08262 10.4167 2.08331H14.5834C15.1563 2.08331 15.6469 2.28748 16.0553 2.69581C16.4636 3.10415 16.6674 3.59443 16.6667 4.16665V6.24998H20.8334C21.4063 6.24998 21.8969 6.45415 22.3053 6.86248C22.7136 7.27081 22.9174 7.76109 22.9167 8.33331V19.7916C22.9167 20.3646 22.7125 20.8552 22.3042 21.2635C21.8959 21.6719 21.4056 21.8757 20.8334 21.875H4.16671ZM4.16671 19.7916H20.8334V8.33331H4.16671V19.7916ZM10.4167 6.24998H14.5834V4.16665H10.4167V6.24998Z" fill="white"/>
</svg>
