<svg width="41" height="41" viewBox="0 0 41 41" fill="none" xmlns="http://www.w3.org/2000/svg">
<path d="M33.1784 12.1583C33.0517 11.6617 32.6917 11.2867 32.28 11.1717C31.55 10.9667 28.0017 10.5 20.5017 10.5C13.0017 10.5 9.45504 10.9667 8.72004 11.1717C8.31337 11.285 7.95337 11.66 7.82504 12.1583C7.64337 12.865 7.16837 15.825 7.16837 20.5C7.16837 25.1733 7.64337 28.1333 7.82504 28.8433C7.95171 29.3383 8.31171 29.7133 8.72171 29.8267C9.45504 30.0333 13 30.5 20.5 30.5C28 30.5 31.5484 30.0333 32.2817 29.8283C32.6884 29.715 33.0484 29.34 33.1767 28.8417C33.36 28.135 33.8334 25.1667 33.8334 20.5C33.8334 15.8333 33.36 12.8667 33.1784 12.1583ZM36.4067 11.33C37.1684 14.3 37.1684 20.5 37.1684 20.5C37.1684 20.5 37.1684 26.7 36.4067 29.67C35.9834 31.3117 34.745 32.6033 33.1767 33.04C30.3284 33.8333 20.5 33.8333 20.5 33.8333C20.5 33.8333 10.6784 33.8333 7.82504 33.04C6.25004 32.5967 5.01337 31.3067 4.59504 29.67C3.83337 26.7 3.83337 20.5 3.83337 20.5C3.83337 20.5 3.83337 14.3 4.59504 11.33C5.01837 9.68833 6.25671 8.39667 7.82504 7.96C10.68 7.16667 20.5017 7.16667 20.5017 7.16667C20.5017 7.16667 30.3284 7.16667 33.1767 7.96C34.75 8.40333 35.9884 9.69333 36.4067 11.33ZM17.1684 26.3333V14.6667L27.1684 20.5L17.1684 26.3333Z" fill="white"/>
</svg>
